<?xml version="1.0" encoding="utf-8"?>
<!-- Generator: Adobe Illustrator 17.0.0, SVG Export Plug-In . SVG Version: 6.00 Build 0)  -->
<!DOCTYPE svg PUBLIC "-//W3C//DTD SVG 1.1//EN" "http://www.w3.org/Graphics/SVG/1.1/DTD/svg11.dtd">
<svg version="1.1" id="Layer_1" xmlns="http://www.w3.org/2000/svg" xmlns:xlink="http://www.w3.org/1999/xlink" x="0px" y="0px"
	 width="200px" height="200px" viewBox="0 0 200 200" enable-background="new 0 0 200 200" xml:space="preserve">
<path fill="#202124" d="M63.115,5.416c5.917,0,8.877,4.644,8.877,13.932c5.489-5.09,9.99-8.173,13.508-9.245l4.502,2.277
	c1.201-3.124,3.817-4.688,7.849-4.688c9.691,2.411,14.538,5.136,14.538,8.173c2.999-1.518,7.462-2.68,13.379-3.485
	c12.178,0,20.797,7.013,25.859,21.033v1.205l-1.157,2.277c10.806,0,18.653,3.885,23.542,11.655v6.965
	c0,10.45-10.08,17.058-30.234,19.826h-3.472c-9.695-2.588-14.538-6.073-14.538-10.448l-10.034,2.277
	c-9.006-2.321-13.51-5.806-13.51-10.45h-1.028c0,9.557-6.733,15.763-20.198,18.62c-4.631,0.805-9.864,1.205-15.696,1.205
	l-1.159-2.277c0-2.231,7.849-4.196,23.544-5.893c5.23-4.554,7.847-8.44,7.847-11.655c-7.718-12.412-15.91-18.62-24.573-18.62
	c-8.232,4.644-12.349,10.45-12.349,17.415c1.457,3.216,2.185,5.583,2.185,7.101h4.504c5.486,0,10.334-2.367,14.536-7.101V53.24
	c-2.231-2.59-3.345-4.554-3.345-5.893h-4.502v4.688c2.229,0,3.345,0.803,3.345,2.411c0,1.072-1.116,2.233-3.345,3.483H67.49
	c-1.461,0-2.188-0.803-2.188-2.411v-3.483c1.369-6.967,4.373-10.45,9.006-10.45C81.77,44.087,85.5,48.731,85.5,55.517
	c0,6.075-7.12,10.36-21.357,12.861c-6.689,0-10.034-4.642-10.034-13.932c-5.233,4.644-9.735,6.967-13.508,6.967h-1.028
	c-8.234-1.251-12.351-5.537-12.351-12.861v-4.69c0-6.162,1.498-9.242,4.502-9.242l2.188,1.072c4.288-3.839,7.289-5.76,9.006-5.76
	l-1.159-2.413v-6.965C43.13,10.462,47.977,5.416,56.297,5.416H63.115z M37.256,46.274h5.661l-1.159-5.895v-1.072
	c4.46,0.448,6.692,1.608,6.692,3.483v4.557c-1.203,3.126-3.817,4.688-7.849,4.688h-4.373l-3.347-2.277v1.205
	c0,1.787,2.575,3.708,7.72,5.76c8.234-3.393,12.351-8.037,12.351-13.932v-3.483c0-2.052-2.618-3.616-7.849-4.688
	C39.873,36.584,37.256,40.469,37.256,46.274z M37.256,63.689H48.45c9.603,11.699,14.836,17.548,15.693,17.548
	c23.929-0.805,35.895-4.288,35.895-10.45l2.185-1.205h2.317c2.573,2.323,7.031,3.483,13.379,3.483h1.159l5.659-1.205
	c0,2.68,6.346,5.047,19.04,7.101c7.462-1.608,12.307-2.413,14.538-2.413c-28.646,29.562-45.844,44.341-51.589,44.341
	c-14.753,0-23.33-3.124-25.73-9.376c-1.374,0-6.219-5.044-14.538-15.138C51.106,81.371,41.373,70.878,37.256,64.895V63.689z
	 M83.184,123.166c1.544,0.269,2.317,1.072,2.317,2.413v2.277c-10.465,8.93-15.696,21.79-15.696,38.579
	c-7.204,16.525-12.823,26.614-16.853,30.276c-2.231-2.321-4.848-3.483-7.849-3.483v-2.411c12.521-21.344,19.64-39.966,21.357-55.863
	C73.408,127.097,78.981,123.166,83.184,123.166z M46.262,22.964c0,4.644,3.001,8.129,9.006,10.45
	c2.229,3.036,3.345,5.357,3.345,6.965c5.917-3.57,8.877-8.214,8.877-13.932v-4.688c-4.806,3.128-8.536,4.688-11.194,4.688h-2.188
	c-1.201,0-2.702-1.56-4.502-4.688c0-2.947,3.001-6.073,9.006-9.378v-1.072h-2.317C50.379,11.309,47.035,15.194,46.262,22.964z
	 M78.811,118.612v2.277c-12.01,3.664-18.012,9.511-18.012,17.548c-0.943,18.041-3.903,28.132-8.877,30.276h-1.157v-3.483h-1.157
	l-2.188,1.205l-1.157-2.411c1.971,0,3.474-3.082,4.502-9.245c0-3.301-0.385-7.589-1.157-12.858
	C49.607,126.382,59.339,118.612,78.811,118.612z M60.799,11.309l2.317,3.485c-4.548,2.947-6.819,4.867-6.819,5.76v1.205
	c6.604-2.947,9.99-5.268,10.163-6.965v-3.485H60.799z M71.992,33.414c5.744,0,11.364,2.323,16.853,6.965
	c6.003-2.68,9.006-4.598,9.006-5.76c-5.661,0-9.778-5.849-12.351-17.548h-2.317C75.722,23.233,71.992,28.68,71.992,33.414z
	 M86.531,129.062h1.157c4.802,0,9.649,0.4,14.536,1.205c3.001-0.805,5.618-1.205,7.849-1.205
	c11.235,22.505,16.853,34.963,16.853,37.374c0,3.216-2.231,5.941-6.689,8.173h-3.345c-2.831,0-6.948-1.964-12.351-5.895h-2.317
	c-5.403,3.931-8.748,5.895-10.034,5.895c-7.376,0-13.722-2.723-19.04-8.173C73.149,164.561,77.608,152.103,86.531,129.062z
	 M106.728,17.071c0,6.252-1.503,9.376-4.504,9.376h-1.028c-6.005-0.98-9.006-3.704-9.006-8.17h-1.157v2.277
	c2.487,7.055,7.72,10.583,15.696,10.583h2.314c1.03,0,2.144-1.205,3.347-3.618v-1.072C112.389,22.161,110.502,19.035,106.728,17.071
	z M93.349,45.067l7.847,8.173c0-7.77,2.96-11.655,8.877-11.655h1.157c7.206,0,12.436,2.726,15.696,8.173
	c-1.201,3.126-3.817,4.688-7.847,4.688c-4.117,0-8.234-1.562-12.351-4.688v5.76c0,1.162,2.229,3.128,6.689,5.895h2.317
	c11.148,0,16.724-3.885,16.724-11.655v-1.205c0-4.108-6.348-8.394-19.04-12.861C101.152,40.068,94.463,43.192,93.349,45.067z
	 M95.534,13.588v1.205c1.03,3.213,2.916,5.537,5.661,6.965c-0.772-3.126-1.157-5.847-1.157-8.17H95.534z M114.575,47.346v1.205
	h2.317v-1.205H114.575z M116.891,19.348l1.028,5.893v3.483l-1.028,2.413c12.692,4.734,19.04,9.376,19.04,13.93
	c1.113,0,2.573-1.56,4.375-4.688c-6.692-1.249-13.04-5.537-19.04-12.861v-3.483c0-1.875,1.498-3.034,4.502-3.483
	c6.604,0,11.45,3.528,14.538,10.583v1.072l-1.03,2.411h6.689c0-8.216-6.733-13.663-20.198-16.343h-1.03L116.891,19.348z
	 M143.778,101.063c7.462,2.592,11.194,7.637,11.194,15.138v2.411c0,7.77-4.502,11.655-13.508,11.655v1.072
	c3.773,0,5.659,0.803,5.659,2.411c0,7.77-6.346,13.219-19.04,16.343c-5.23,0-8.962-6.25-11.191-18.754v-1.072h2.188
	c0,3.483,3.73,6.208,11.191,8.17h1.159l3.345-10.581l-10.036-2.277v-2.413h12.222c4.032,0,6.646-1.516,7.849-4.554
	c0-1.159-1.503-2.365-4.502-3.616l-23.415,3.616C127.698,106.913,136.66,101.063,143.778,101.063z M128.083,26.447
	c0,1.162,2.231,3.082,6.692,5.762v-2.277c-1.286,0-3.174-1.162-5.661-3.485H128.083z M140.307,52.034l2.314,1.205h7.849v-1.205
	c-3.003,0-4.504-0.759-4.504-2.277v-1.205c0.258-1.518,0.984-2.277,2.188-2.277c6.775,0,10.163,1.921,10.163,5.76
	c-1.888,4.734-5.274,7.099-10.163,7.099h-4.375c-2.573,0-5.189-1.205-7.847-3.616c0,1.431-1.888,4.152-5.661,8.173v1.205
	c1.457,0,3.688,1.562,6.689,4.688h10.163c14.153-3.752,21.228-7.637,21.228-11.655v-8.17c-4.202-4.642-9.05-6.967-14.536-6.967
	h-6.692C142.577,44.933,140.307,48.016,140.307,52.034z M135.932,129.062v1.205h3.345v-1.205H135.932z"/>
<g>
</g>
<g>
</g>
<g>
</g>
<g>
</g>
<g>
</g>
<g>
</g>
<g>
</g>
<g>
</g>
<g>
</g>
<g>
</g>
<g>
</g>
<g>
</g>
<g>
</g>
<g>
</g>
<g>
</g>
</svg>
