<?xml version="1.0" encoding="utf-8"?>
<!-- Generator: Adobe Illustrator 17.0.0, SVG Export Plug-In . SVG Version: 6.00 Build 0)  -->
<!DOCTYPE svg PUBLIC "-//W3C//DTD SVG 1.1//EN" "http://www.w3.org/Graphics/SVG/1.1/DTD/svg11.dtd">
<svg version="1.1" id="Layer_1" xmlns="http://www.w3.org/2000/svg" xmlns:xlink="http://www.w3.org/1999/xlink" x="0px" y="0px"
	 width="200px" height="200px" viewBox="0 0 200 200" enable-background="new 0 0 200 200" xml:space="preserve">
<path fill="#202124" d="M62.673,4.01c11.785,0,20.602,8.122,26.452,24.365c7.46,12.801,12.208,19.861,14.243,21.186
	c12.122-24.717,22.337-37.077,30.646-37.077c12.887,5.386,19.331,13.86,19.331,25.424c0,7.415-4.751,13.065-14.243,16.948v1.06
	h35.607c1.356,0.266,2.035,0.973,2.035,2.119v33.899c0,1.412-2.035,2.119-6.104,2.119v97.589c0,1.414-0.679,2.119-2.035,2.119
	H35.206c-1.356,0-2.035-0.705-2.035-2.119V94.053c-4.069,0-6.104-0.707-6.104-2.119V82.4c0-0.707,0-1.764,0-3.179V58.035
	c0.255-1.412,0.932-2.119,2.035-2.119h36.625v-1.06c-15.601-2.735-23.398-9.797-23.398-21.186v-3.179
	C46.227,12.839,53.01,4.01,62.673,4.01z M39.275,67.569V82.4h48.834c1.354,0,2.035-0.707,2.035-2.119V69.688
	c0-1.412-0.681-2.119-2.035-2.119H39.275z M46.398,94.053v7.546v79.45h43.746V94.053H46.398z M53.518,32.611
	c0,6.621,10.511,11.212,31.537,13.772v-1.06C77.34,29.082,70.897,19.548,65.727,16.722h-3.053
	C58.606,19.548,55.553,24.844,53.518,32.611z M113.542,67.569V82.4h50.994V69.688c0-1.412-0.679-2.119-2.035-2.119H113.542z
	 M113.542,94.053v86.996h44.89V94.053H113.542z M119.774,46.383c14.241-2.119,21.364-4.943,21.364-8.474
	c0-5.209-2.374-9.445-7.123-12.712h-1.016C128.589,28.727,124.18,35.79,119.774,46.383z"/>
<g>
</g>
<g>
</g>
<g>
</g>
<g>
</g>
<g>
</g>
<g>
</g>
<g>
</g>
<g>
</g>
<g>
</g>
<g>
</g>
<g>
</g>
<g>
</g>
<g>
</g>
<g>
</g>
<g>
</g>
</svg>
