<?xml version="1.0" encoding="utf-8"?>
<!-- Generator: Adobe Illustrator 17.0.0, SVG Export Plug-In . SVG Version: 6.00 Build 0)  -->
<!DOCTYPE svg PUBLIC "-//W3C//DTD SVG 1.1//EN" "http://www.w3.org/Graphics/SVG/1.1/DTD/svg11.dtd">
<svg version="1.1" id="Layer_1" xmlns="http://www.w3.org/2000/svg" xmlns:xlink="http://www.w3.org/1999/xlink" x="0px" y="0px"
	 width="200px" height="200px" viewBox="0 0 200 200" enable-background="new 0 0 200 200" xml:space="preserve">
<path fill="#202124" d="M69.15,50.399h9.851c25.036,0,43.889,15.369,56.562,46.103c2.472,4.024,3.709,11.707,3.709,23.051
	c-0.851,17.702-4.135,28.403-9.852,32.103c-7.418-1.449-11.127-3.178-11.127-5.19c4.945-9.172,7.418-18.988,7.418-29.448
	c0-25.665-14.759-43.164-44.275-52.499h-9.852c-25.036,0-41.456,14.926-49.26,44.775c-0.773,3.219-1.159,7.081-1.159,11.586
	c0,23.978,13.946,41.075,41.842,51.293l12.286,1.206c7.65,0,18.698-4.264,33.148-12.792c6.491,3.46,10.2,5.189,11.127,5.189v1.207
	c-12.442,13.679-28.011,20.517-46.709,20.517c-30.755,0-52.081-17.941-63.98-53.826c-0.85-5.793-1.274-10.5-1.274-14.121v-2.534
	c0-30.091,15.568-51.453,46.709-64.085C60.031,51.244,64.977,50.399,69.15,50.399z M167.553,60.658
	c17.23,12.39,25.846,28.201,25.846,47.43v2.534c0,26.874-14.759,45.257-44.275,55.154c-3.092,0.805-6.8,1.207-11.127,1.207h-1.159
	c-25.268,0-42.925-14.924-52.968-44.776c-0.774-4.504-1.16-8.809-1.16-12.914c0-14.724,4.481-27.073,13.446-37.051
	c5.795,2.897,8.692,5.029,8.692,6.396v1.207c-7.418,10.46-11.127,19.875-11.127,28.242c0,22.447,11.899,37.817,35.699,46.103h11.011
	c17.772,0,30.907-10.661,39.407-31.983c0.849-3.298,1.275-6.716,1.275-10.258v-5.19c0-14.32-7.805-27.556-23.412-39.706
	C159.091,66.894,162.374,64.762,167.553,60.658z M134.288,51.727c0.927,1.128,2.974,4.949,6.143,11.466l-2.434,1.327v-1.327
	l-18.429,3.862l-7.418-7.603C112.15,56.636,119.528,54.061,134.288,51.727z M130.579,28.675c10.663,2.576,15.995,4.707,15.995,6.397
	v26.913h-2.434c0-1.851-4.908-12.552-14.72-32.103C130.191,29.882,130.579,29.481,130.579,28.675z M140.431,15.883
	c1.699,0,3.361,4.667,4.984,14l-2.434,1.327c-6.569-2.574-10.703-3.862-12.402-3.862v-1.207
	C130.579,25.016,133.862,21.596,140.431,15.883z M144.14,14.556c7.572,1.689,12.092,2.534,13.561,2.534v2.534
	c0,1.127-3.285,4.547-9.852,10.258C145.374,25.459,144.14,20.349,144.14,14.556z M149.124,33.744c6.49,1.69,11.396,3.421,14.72,5.19
	c-4.097,7.965-8.192,13.921-12.286,17.861h-1.275l-2.434-21.723C148.698,35.073,149.124,34.631,149.124,33.744z M161.41,22.279
	c0,1.771,1.235,6.035,3.708,12.793c-0.85,0-1.274,0.403-1.274,1.206c-9.041-1.689-13.561-3.379-13.561-5.069
	C153.218,25.257,156.927,22.279,161.41,22.279z M166.278,38.934c9.889,1.449,14.835,3.138,14.835,5.069
	c0,1.046-9.04,7.886-27.121,20.517h-1.159v-1.327L166.278,38.934z M165.118,19.624c5.1,1.771,9.195,2.655,12.286,2.655v2.534
	c0,1.046-3.284,4.466-9.851,10.259c-1.623,0-3.285-4.707-4.984-14.121L165.118,19.624z M178.564,26.141
	c2.086,0,3.746,4.668,4.983,14.001c-0.85,0-1.275,0.442-1.275,1.327l-13.445-3.862v-1.328
	C168.827,35.234,172.073,31.855,178.564,26.141z"/>
<g>
</g>
<g>
</g>
<g>
</g>
<g>
</g>
<g>
</g>
<g>
</g>
<g>
</g>
<g>
</g>
<g>
</g>
<g>
</g>
<g>
</g>
<g>
</g>
<g>
</g>
<g>
</g>
<g>
</g>
</svg>
