<?xml version="1.0" encoding="utf-8"?>
<!-- Generator: Adobe Illustrator 17.0.0, SVG Export Plug-In . SVG Version: 6.00 Build 0)  -->
<!DOCTYPE svg PUBLIC "-//W3C//DTD SVG 1.1//EN" "http://www.w3.org/Graphics/SVG/1.1/DTD/svg11.dtd">
<svg version="1.1" id="Layer_1" xmlns="http://www.w3.org/2000/svg" xmlns:xlink="http://www.w3.org/1999/xlink" x="0px" y="0px"
	 width="2288.928px" height="324.032px" viewBox="0 57.825 2288.928 324.032" enable-background="new 0 57.825 2288.928 324.032"
	 xml:space="preserve">
<g>
	<path fill="#FF004E" d="M27.167,98.571h15.3v196.2h120.9v13.8h-136.2C27.167,308.571,27.167,98.571,27.167,98.571z"/>
	<path fill="#FF004E" d="M295.662,165.621c10.397,9.9,15.6,24.45,15.6,43.65v99.3h-14.4v-27.899
		c-5.001,9.201-12.3,16.35-21.9,21.449c-9.6,5.101-21.103,7.65-34.5,7.65c-17.4,0-31.153-4.097-41.25-12.3
		c-10.102-8.198-15.15-18.999-15.15-32.4c0-12.998,4.65-23.55,13.95-31.649c9.3-8.101,24.15-12.15,44.55-12.15h53.7v-12.6
		c0-14.597-3.952-25.697-11.85-33.3c-7.903-7.598-19.453-11.4-34.65-11.4c-10.401,0-20.353,1.8-29.85,5.4
		c-9.501,3.6-17.55,8.4-24.15,14.4l-7.5-10.8c7.8-6.999,17.199-12.45,28.2-16.35c10.997-3.9,22.5-5.85,34.5-5.85
		C270.359,150.772,285.261,155.721,295.662,165.621z M275.712,288.471c9.098-6,15.947-14.7,20.55-26.101v-29.399h-53.4
		c-15.403,0-26.55,2.803-33.45,8.399c-6.9,5.602-10.35,13.304-10.35,23.101c0,10.2,3.797,18.253,11.4,24.149
		c7.598,5.902,18.3,8.851,32.1,8.851C255.561,297.471,266.609,294.471,275.712,288.471z"/>
	<path fill="#FF004E" d="M512.558,85.971v222.6h-14.7v-36.899c-6.202,12.201-14.901,21.6-26.101,28.199
		c-11.203,6.601-23.901,9.9-38.1,9.9c-14.602,0-27.802-3.398-39.6-10.2c-11.804-6.797-21.052-16.2-27.75-28.2
		c-6.703-12-10.051-25.696-10.051-41.1c0-15.398,3.348-29.146,10.051-41.25c6.698-12.099,15.946-21.497,27.75-28.2
		c11.798-6.698,24.998-10.05,39.6-10.05c13.997,0,26.55,3.3,37.65,9.9c11.1,6.6,19.847,15.801,26.25,27.6v-102.3
		C497.557,85.971,512.558,85.971,512.558,85.971z M466.808,287.871c9.496-5.597,16.996-13.396,22.5-23.399
		c5.498-9.999,8.25-21.398,8.25-34.2c0-12.797-2.752-24.197-8.25-34.2c-5.504-9.999-13.004-17.798-22.5-23.4
		c-9.502-5.597-20.25-8.4-32.25-8.4s-22.754,2.803-32.25,8.4c-9.502,5.602-17.002,13.401-22.5,23.4
		c-5.504,10.002-8.25,21.403-8.25,34.2c0,12.802,2.746,24.201,8.25,34.2c5.498,10.003,12.998,17.803,22.5,23.399
		c9.496,5.602,20.25,8.4,32.25,8.4S457.306,293.472,466.808,287.871z"/>
	<path fill="#FF004E" d="M701.554,151.971l-80.4,177.899c-6,13.8-12.951,23.597-20.85,29.4c-7.903,5.798-17.25,8.7-28.05,8.7
		c-7.2,0-13.95-1.2-20.25-3.601c-6.3-2.399-11.648-5.901-16.05-10.5l7.5-11.399c7.996,8.198,17.699,12.3,29.1,12.3
		c7.599,0,14.1-2.101,19.5-6.3c5.4-4.2,10.396-11.4,15-21.601l8.4-18.899l-70.5-156h15.899l62.7,140.1l62.7-140.1L701.554,151.971
		L701.554,151.971z"/>
	<path fill="#FF004E" d="M852.454,160.821c11.799,6.703,21.047,16.102,27.75,28.2c6.698,12.103,10.05,25.851,10.05,41.25
		c0,15.403-3.352,29.1-10.05,41.1c-6.703,12-15.951,21.403-27.75,28.2c-11.803,6.802-25.003,10.2-39.6,10.2
		c-14.002,0-26.653-3.347-37.95-10.05c-11.302-6.698-20.054-16.05-26.25-28.05v36.899h-14.4V85.97h15v101.7
		c6.197-11.597,14.897-20.648,26.101-27.15c11.198-6.497,23.699-9.75,37.5-9.75C827.451,150.772,840.651,154.123,852.454,160.821z
		 M844.354,287.871c9.6-5.597,17.146-13.396,22.649-23.399c5.499-9.999,8.25-21.398,8.25-34.2c0-12.797-2.751-24.197-8.25-34.2
		c-5.503-9.999-13.05-17.798-22.649-23.4c-9.601-5.597-20.4-8.4-32.4-8.4s-22.753,2.803-32.25,8.4
		c-9.502,5.602-17.002,13.401-22.5,23.4c-5.503,10.002-8.25,21.403-8.25,34.2c0,12.802,2.747,24.201,8.25,34.2
		c5.498,10.003,12.998,17.803,22.5,23.399c9.497,5.602,20.25,8.4,32.25,8.4S834.753,293.472,844.354,287.871z"/>
	<path fill="#FF004E" d="M1073.851,151.971v156.6h-14.4v-33.6c-5.203,11.001-12.9,19.552-23.1,25.649c-10.2,6.104-22.2,9.15-36,9.15
		c-20.4,0-36.403-5.7-48-17.1c-11.602-11.4-17.4-27.797-17.4-49.2v-91.5h15v90.3c0,17.602,4.5,31.003,13.5,40.2
		c9,9.201,21.698,13.8,38.1,13.8c17.598,0,31.547-5.498,41.851-16.5c10.298-10.997,15.45-25.8,15.45-44.4v-83.399L1073.851,151.971
		L1073.851,151.971z"/>
	<path fill="#FF004E" d="M1278.448,151.971v139.8c0,25.997-6.3,45.196-18.899,57.6c-12.601,12.398-31.604,18.601-57,18.601
		c-14.401,0-28.004-2.203-40.801-6.601c-12.801-4.401-23.1-10.5-30.899-18.3l8.1-11.4c7.8,7.2,17.198,12.797,28.2,16.801
		c10.997,3.998,22.697,6,35.1,6c20.799,0,36.197-4.95,46.2-14.851c9.999-9.899,15-25.251,15-46.05v-26.399
		c-6.403,11.399-15.3,20.203-26.7,26.399c-11.399,6.202-24.201,9.3-38.4,9.3c-14.602,0-27.854-3.248-39.75-9.75
		c-11.901-6.496-21.253-15.548-28.05-27.149c-6.802-11.597-10.2-24.698-10.2-39.3c0-14.598,3.398-27.699,10.2-39.3
		c6.797-11.597,16.148-20.597,28.05-27c11.896-6.398,25.148-9.6,39.75-9.6c14.4,0,27.399,3.201,39,9.6
		c11.597,6.403,20.498,15.403,26.7,27v-35.4h14.399V151.971z M1232.549,281.421c9.797-5.297,17.446-12.699,22.949-22.2
		c5.499-9.497,8.25-20.349,8.25-32.55c0-12.197-2.751-22.997-8.25-32.4c-5.503-9.398-13.152-16.749-22.949-22.05
		c-9.802-5.297-20.804-7.95-33-7.95c-12.202,0-23.152,2.653-32.851,7.95c-9.703,5.302-17.302,12.652-22.8,22.05
		c-5.503,9.403-8.25,20.203-8.25,32.4c0,12.201,2.747,23.053,8.25,32.55c5.498,9.501,13.097,16.903,22.8,22.2
		c9.698,5.301,20.648,7.949,32.851,7.949C1211.745,289.371,1222.747,286.722,1232.549,281.421z"/>
	<path d="M1377.445,131.272v63.9h101.399v33h-101.399v80.399h-39v-210h153.3v32.7h-114.3V131.272z"/>
	<path d="M1525.943,85.971h37.5v222.6h-37.5V85.971z"/>
	<path d="M1640.839,300.171c-13.003-6.999-23.151-16.749-30.45-29.25c-7.303-12.497-10.949-26.648-10.949-42.45
		c0-15.797,3.646-29.897,10.949-42.3c7.299-12.398,17.447-22.097,30.45-29.1c12.999-6.999,27.601-10.5,43.8-10.5
		c16.397,0,31.098,3.501,44.101,10.5c12.998,7.003,23.146,16.702,30.45,29.1c7.298,12.403,10.949,26.503,10.949,42.3
		c0,15.802-3.651,29.953-10.949,42.45c-7.304,12.501-17.452,22.251-30.45,29.25c-13.003,7.003-27.703,10.5-44.101,10.5
		C1668.439,310.671,1653.838,307.174,1640.839,300.171z M1718.839,264.771c9-9.197,13.5-21.3,13.5-36.3s-4.5-27.099-13.5-36.3
		c-9-9.197-20.399-13.8-34.2-13.8c-13.8,0-25.152,4.604-34.05,13.8c-8.901,9.201-13.35,21.3-13.35,36.3s4.448,27.103,13.35,36.3
		c8.897,9.201,20.25,13.8,34.05,13.8C1698.439,278.571,1709.839,273.972,1718.839,264.771z"/>
	<path d="M1898.836,146.571v35.7c-3.201-0.6-6.103-0.9-8.7-0.9c-14.602,0-26.001,4.252-34.199,12.75
		c-8.203,8.503-12.301,20.751-12.301,36.75v77.7h-37.5v-160.2h35.7v23.4C1852.636,154.971,1871.635,146.571,1898.836,146.571z"/>
	<path d="M1932.439,115.522c-4.604-4.299-6.9-9.647-6.9-16.05c0-6.398,2.297-11.747,6.9-16.05c4.598-4.298,10.298-6.45,17.1-6.45
		c6.797,0,12.497,2.053,17.1,6.15c4.599,4.102,6.9,9.253,6.9,15.45c0,6.6-2.25,12.15-6.75,16.65s-10.252,6.75-17.25,6.75
		C1942.737,121.971,1937.037,119.824,1932.439,115.522z M1930.639,148.371h37.5v160.2h-37.5V148.371z"/>
	<path d="M2028.734,305.571c-12.403-3.398-22.303-7.696-29.7-12.899l14.4-28.5c7.2,4.8,15.849,8.652,25.95,11.55
		c10.097,2.901,20.048,4.35,29.85,4.35c22.396,0,33.6-5.896,33.6-17.7c0-5.597-2.85-9.496-8.55-11.699
		c-5.7-2.199-14.85-4.299-27.45-6.301c-13.199-1.996-23.953-4.298-32.25-6.899c-8.301-2.597-15.501-7.148-21.6-13.65
		c-6.104-6.497-9.15-15.548-9.15-27.149c0-15.197,6.348-27.347,19.051-36.45c12.698-9.098,29.85-13.65,51.449-13.65
		c10.997,0,21.999,1.251,33,3.75c10.997,2.503,19.997,5.85,27,10.05l-14.399,28.5c-13.604-7.997-28.903-12-45.9-12
		c-11.001,0-19.35,1.65-25.05,4.95s-8.55,7.65-8.55,13.05c0,6,3.047,10.251,9.149,12.75c6.099,2.504,15.549,4.852,28.351,7.051
		c12.797,2.001,23.297,4.303,31.5,6.899c8.198,2.602,15.248,7.003,21.149,13.2c5.897,6.201,8.851,15,8.851,26.4
		c0,15-6.502,27-19.5,36c-13.003,9-30.703,13.5-53.101,13.5C2053.831,310.671,2041.133,308.969,2028.734,305.571z"/>
	<path d="M2268.135,299.871c-4.402,3.601-9.75,6.301-16.051,8.101c-6.3,1.8-12.951,2.7-19.949,2.7
		c-17.602,0-31.2-4.599-40.801-13.801c-9.6-9.196-14.399-22.598-14.399-40.199v-77.1h-26.4v-30h26.4v-36.6h37.5v36.6h42.899v30
		h-42.899v76.2c0,7.8,1.898,13.753,5.7,17.85c3.797,4.102,9.3,6.15,16.5,6.15c8.399,0,15.398-2.198,21-6.6L2268.135,299.871z"/>
</g>
</svg>
