<?xml version="1.0" encoding="utf-8"?>
<!-- Generator: Adobe Illustrator 17.0.0, SVG Export Plug-In . SVG Version: 6.00 Build 0)  -->
<!DOCTYPE svg PUBLIC "-//W3C//DTD SVG 1.1//EN" "http://www.w3.org/Graphics/SVG/1.1/DTD/svg11.dtd">
<svg version="1.1" id="Layer_1" xmlns="http://www.w3.org/2000/svg" xmlns:xlink="http://www.w3.org/1999/xlink" x="0px" y="0px"
	 width="761.377px" height="113.046px" viewBox="0 0 761.377 113.046" enable-background="new 0 0 761.377 113.046"
	 xml:space="preserve">
<g>
	<path d="M51.25,84.278c0.852,0,1.598,0.303,2.237,0.905c0.639,0.604,0.959,1.332,0.959,2.185c0,0.924-0.32,1.688-0.959,2.291
		s-1.385,0.905-2.237,0.905H13.212c-0.924,0-1.688-0.319-2.291-0.959c-0.604-0.64-0.905-1.385-0.905-2.237v-68.19
		c0-0.853,0.319-1.599,0.959-2.238c0.639-0.639,1.455-0.959,2.45-0.959c0.853,0,1.615,0.32,2.291,0.959
		c0.674,0.639,1.012,1.385,1.012,2.238V86.09l-2.024-1.812H51.25z"/>
	<path d="M109.318,36.119c0.922,0,1.686,0.32,2.291,0.959c0.603,0.639,0.906,1.422,0.906,2.344v47.947
		c0,0.853-0.32,1.598-0.959,2.237s-1.385,0.959-2.237,0.959c-0.996,0-1.776-0.319-2.344-0.959c-0.569-0.64-0.853-1.385-0.853-2.237
		v-12.68l1.812-0.852c0,1.989-0.551,4.014-1.651,6.073c-1.103,2.061-2.611,3.979-4.528,5.753c-1.918,1.776-4.174,3.215-6.766,4.315
		c-2.594,1.101-5.417,1.651-8.47,1.651c-4.76,0-9.04-1.242-12.839-3.729c-3.801-2.485-6.784-5.895-8.95-10.229
		c-2.167-4.331-3.25-9.197-3.25-14.597c0-5.541,1.101-10.423,3.303-14.65c2.201-4.225,5.184-7.546,8.95-9.962
		c3.764-2.414,7.991-3.623,12.679-3.623c3.054,0,5.914,0.533,8.577,1.599c2.664,1.065,4.99,2.522,6.979,4.368
		c1.988,1.848,3.551,3.96,4.688,6.34c1.136,2.38,1.705,4.848,1.705,7.405l-2.238-1.598V39.421c0-0.922,0.283-1.705,0.853-2.344
		C107.542,36.438,108.322,36.119,109.318,36.119z M87.156,85.663c3.764,0,7.102-0.976,10.016-2.93
		c2.912-1.953,5.202-4.651,6.872-8.098c1.668-3.444,2.504-7.299,2.504-11.561c0-4.19-0.836-7.955-2.504-11.294
		c-1.67-3.338-3.96-6.002-6.872-7.991c-2.914-1.988-6.251-2.983-10.016-2.983c-3.694,0-7.016,0.959-9.962,2.877
		c-2.948,1.918-5.257,4.546-6.925,7.884c-1.67,3.34-2.504,7.175-2.504,11.507c0,4.262,0.815,8.116,2.451,11.561
		c1.633,3.446,3.924,6.145,6.872,8.098C80.034,84.688,83.39,85.663,87.156,85.663z"/>
	<path d="M173.458,11.719c0.922,0,1.686,0.303,2.291,0.906c0.603,0.604,0.906,1.368,0.906,2.291v72.453
		c0,0.853-0.32,1.598-0.959,2.237s-1.385,0.959-2.237,0.959c-0.996,0-1.776-0.319-2.344-0.959c-0.569-0.64-0.853-1.385-0.853-2.237
		v-12.68l1.812-1.491c0,1.989-0.533,4.067-1.598,6.233c-1.065,2.167-2.576,4.173-4.528,6.02c-1.955,1.848-4.227,3.34-6.819,4.475
		c-2.594,1.136-5.417,1.705-8.47,1.705c-4.688,0-8.934-1.242-12.732-3.729c-3.801-2.485-6.803-5.859-9.003-10.122
		c-2.203-4.262-3.303-9.126-3.303-14.597c0-5.397,1.101-10.245,3.303-14.543c2.201-4.297,5.184-7.672,8.95-10.122
		c3.764-2.451,7.991-3.676,12.679-3.676c2.983,0,5.789,0.533,8.417,1.599c2.627,1.065,4.955,2.522,6.979,4.368
		c2.024,1.848,3.623,3.96,4.794,6.34c1.172,2.38,1.758,4.848,1.758,7.405l-2.238-1.598V14.916c0-0.852,0.283-1.598,0.853-2.237
		C171.682,12.039,172.463,11.719,173.458,11.719z M151.296,85.663c3.764,0,7.102-0.976,10.016-2.93
		c2.912-1.953,5.202-4.617,6.872-7.991c1.668-3.373,2.504-7.227,2.504-11.561c0-4.262-0.836-8.079-2.504-11.454
		c-1.67-3.373-3.96-6.037-6.872-7.991c-2.914-1.953-6.251-2.93-10.016-2.93c-3.694,0-7.016,0.978-9.962,2.93
		c-2.948,1.955-5.257,4.618-6.925,7.991c-1.67,3.375-2.504,7.192-2.504,11.454s0.834,8.098,2.504,11.507
		c1.668,3.41,3.977,6.092,6.925,8.045C144.281,84.688,147.602,85.663,151.296,85.663z"/>
	<path d="M233.976,35.16c0.922,0,1.687,0.32,2.291,0.959c0.603,0.639,0.906,1.385,0.906,2.237v46.988
		c0,5.754-1.137,10.602-3.41,14.544c-2.274,3.942-5.327,6.925-9.163,8.949s-8.204,3.037-13.105,3.037
		c-3.055,0-5.878-0.338-8.47-1.013c-2.594-0.676-4.707-1.545-6.34-2.61c-0.853-0.497-1.492-1.102-1.918-1.811
		c-0.426-0.711-0.463-1.457-0.106-2.238c0.354-0.995,0.906-1.651,1.651-1.971c0.746-0.319,1.508-0.303,2.291,0.054
		c1.207,0.639,2.947,1.42,5.221,2.344c2.272,0.922,4.865,1.385,7.778,1.385c3.906,0,7.299-0.817,10.175-2.45
		c2.877-1.635,5.096-3.996,6.66-7.086c1.562-3.09,2.344-6.766,2.344-11.027v-7.672l0.746,2.558c-1.066,2.202-2.576,4.155-4.528,5.86
		c-1.955,1.704-4.192,3.036-6.713,3.995c-2.522,0.959-5.204,1.438-8.044,1.438c-4.262,0-7.796-0.871-10.602-2.61
		c-2.807-1.739-4.885-4.137-6.233-7.192c-1.351-3.053-2.024-6.641-2.024-10.761v-32.71c0-0.852,0.283-1.598,0.852-2.237
		c0.568-0.639,1.349-0.959,2.344-0.959c0.922,0,1.687,0.32,2.291,0.959c0.603,0.639,0.906,1.385,0.906,2.237v31.751
		c0,4.973,1.082,8.809,3.25,11.507c2.166,2.7,5.7,4.049,10.601,4.049c3.053,0,5.86-0.728,8.417-2.184
		c2.557-1.455,4.651-3.373,6.286-5.754c1.633-2.379,2.451-4.918,2.451-7.618V38.356c0-0.852,0.301-1.598,0.906-2.237
		C232.288,35.479,233.052,35.16,233.976,35.16z"/>
	<path d="M279.791,34.84c4.83,0,9.11,1.209,12.839,3.623c3.729,2.416,6.694,5.737,8.896,9.962c2.201,4.227,3.303,9.11,3.303,14.65
		c0,5.399-1.102,10.266-3.303,14.597c-2.203,4.334-5.186,7.743-8.95,10.229c-3.766,2.487-7.991,3.729-12.679,3.729
		c-2.487,0-4.848-0.392-7.085-1.172c-2.238-0.781-4.28-1.828-6.126-3.144c-1.848-1.313-3.481-2.858-4.901-4.635
		c-1.422-1.774-2.557-3.692-3.41-5.753l1.918-1.386v12.04c0,0.924-0.303,1.688-0.906,2.291c-0.604,0.604-1.368,0.905-2.291,0.905
		c-0.924,0-1.688-0.301-2.291-0.905c-0.604-0.603-0.905-1.367-0.905-2.291V15.022c0-0.922,0.283-1.686,0.852-2.291
		c0.568-0.603,1.349-0.906,2.344-0.906c0.922,0,1.687,0.303,2.291,0.906c0.603,0.604,0.906,1.369,0.906,2.291v35.694l-1.492-0.853
		c0.709-2.201,1.758-4.208,3.143-6.02c1.385-1.811,3-3.391,4.848-4.741c1.846-1.349,3.871-2.397,6.073-3.143
		C275.066,35.213,277.375,34.84,279.791,34.84z M279.258,40.807c-3.835,0-7.21,0.959-10.122,2.877
		c-2.914,1.918-5.205,4.546-6.873,7.884c-1.67,3.34-2.504,7.175-2.504,11.507c0,4.262,0.834,8.116,2.504,11.561
		c1.668,3.446,3.959,6.145,6.873,8.098c2.912,1.954,6.286,2.93,10.122,2.93c3.764,0,7.085-0.994,9.962-2.983
		c2.877-1.987,5.167-4.704,6.873-8.15c1.705-3.444,2.557-7.262,2.557-11.454c0-4.332-0.853-8.167-2.557-11.507
		c-1.705-3.338-3.996-5.966-6.873-7.884S283.022,40.807,279.258,40.807z"/>
	<path d="M358.742,36.438c0.922,0,1.686,0.319,2.291,0.958c0.603,0.64,0.906,1.385,0.906,2.238v30.046
		c0,7.032-1.989,12.396-5.967,16.089c-3.979,3.694-9.341,5.541-16.088,5.541c-6.678,0-11.987-1.847-15.929-5.541
		c-3.942-3.692-5.913-9.057-5.913-16.089V39.635c0-0.853,0.301-1.598,0.905-2.238c0.603-0.639,1.367-0.958,2.291-0.958
		c0.922,0,1.687,0.319,2.291,0.958c0.603,0.64,0.906,1.385,0.906,2.238v30.046c0,5.114,1.367,9.004,4.102,11.667
		c2.734,2.664,6.516,3.996,11.348,3.996c4.901,0,8.737-1.332,11.507-3.996c2.771-2.663,4.155-6.553,4.155-11.667V39.635
		c0-0.853,0.283-1.598,0.853-2.238C356.965,36.758,357.746,36.438,358.742,36.438z"/>
	<path d="M399.868,34.84c3.125,0,6.037,0.551,8.737,1.652c2.698,1.102,5.061,2.522,7.085,4.262c2.024,1.741,3.604,3.588,4.741,5.541
		c1.136,1.955,1.705,3.819,1.705,5.594l-1.705-2.557v-9.909c0-0.922,0.302-1.705,0.906-2.344c0.603-0.639,1.366-0.959,2.291-0.959
		c0.922,0,1.686,0.32,2.29,0.959c0.603,0.639,0.906,1.422,0.906,2.344v46.135c0,5.682-1.172,10.477-3.517,14.384
		c-2.344,3.906-5.523,6.872-9.536,8.896c-4.014,2.024-8.577,3.037-13.691,3.037c-2.487,0-5.098-0.319-7.832-0.959
		c-2.735-0.64-5.079-1.457-7.032-2.45c-1.955-0.996-3.073-2.024-3.356-3.09c-0.498-0.64-0.729-1.263-0.692-1.865
		c0.035-0.604,0.336-1.118,0.905-1.545c0.64-0.498,1.367-0.551,2.185-0.159c0.815,0.389,2.006,0.905,3.569,1.545
		c0.639,0.213,1.58,0.532,2.823,0.959c1.242,0.426,2.699,0.799,4.369,1.118c1.668,0.319,3.391,0.479,5.167,0.479
		c6.393,0,11.364-1.829,14.917-5.487c3.551-3.659,5.327-8.471,5.327-14.438V75.754l1.173,0.32c-0.64,2.557-1.705,4.794-3.197,6.712
		c-1.491,1.918-3.232,3.535-5.221,4.849c-1.989,1.314-4.12,2.309-6.393,2.983c-2.274,0.674-4.546,1.012-6.819,1.012
		c-4.901,0-9.323-1.242-13.266-3.729c-3.942-2.485-7.05-5.859-9.323-10.122c-2.274-4.262-3.41-9.126-3.41-14.597
		c0-5.397,1.136-10.245,3.41-14.543c2.272-4.297,5.362-7.672,9.27-10.122C390.562,36.065,394.967,34.84,399.868,34.84z
		 M400.507,40.807c-3.836,0-7.299,0.978-10.389,2.93c-3.09,1.955-5.505,4.618-7.245,7.991c-1.741,3.375-2.61,7.192-2.61,11.454
		s0.869,8.098,2.61,11.507c1.74,3.41,4.155,6.092,7.245,8.045c3.09,1.954,6.553,2.93,10.389,2.93c3.905,0,7.387-0.959,10.441-2.877
		c3.054-1.918,5.469-4.563,7.245-7.938c1.774-3.373,2.664-7.262,2.664-11.667c0-4.403-0.89-8.292-2.664-11.667
		c-1.776-3.373-4.191-6.001-7.245-7.884C407.894,41.749,404.413,40.807,400.507,40.807z"/>
	<path fill="#FF004E" d="M477.647,90.564c-0.995,0-1.795-0.319-2.397-0.959c-0.604-0.64-0.905-1.385-0.905-2.237v-68.19
		c0-0.853,0.319-1.599,0.959-2.238c0.639-0.639,1.385-0.959,2.237-0.959h38.783c0.923,0,1.687,0.303,2.291,0.906
		c0.603,0.604,0.905,1.369,0.905,2.291c0,0.852-0.303,1.582-0.905,2.184c-0.604,0.604-1.368,0.906-2.291,0.906h-35.906l0.426-0.64
		V49.97l-0.532-0.959h31.218c0.923,0,1.687,0.303,2.291,0.906c0.603,0.604,0.906,1.332,0.906,2.184c0,0.924-0.304,1.67-0.906,2.238
		c-0.604,0.569-1.368,0.852-2.291,0.852h-31.431l0.745-0.852v33.03c0,0.853-0.303,1.598-0.905,2.237
		C479.333,90.245,478.57,90.564,477.647,90.564z"/>
	<path fill="#FF004E" d="M540.083,87.368c0,0.853-0.319,1.598-0.959,2.237c-0.639,0.64-1.385,0.959-2.237,0.959
		c-0.924,0-1.688-0.319-2.291-0.959c-0.604-0.64-0.905-1.385-0.905-2.237V14.916c0-0.852,0.319-1.598,0.959-2.237
		c0.639-0.639,1.385-0.959,2.237-0.959c0.922,0,1.687,0.32,2.291,0.959c0.603,0.639,0.905,1.385,0.905,2.237V87.368z"/>
	<path fill="#FF004E" d="M606.783,63.288c0,5.399-1.19,10.247-3.569,14.544c-2.381,4.299-5.594,7.672-9.643,10.122
		s-8.631,3.676-13.745,3.676c-5.044,0-9.607-1.226-13.691-3.676c-4.085-2.45-7.316-5.823-9.695-10.122
		c-2.381-4.297-3.569-9.145-3.569-14.544c0-5.469,1.188-10.335,3.569-14.597c2.379-4.262,5.61-7.635,9.695-10.122
		c4.084-2.486,8.647-3.729,13.691-3.729c5.114,0,9.696,1.244,13.745,3.729c4.049,2.487,7.262,5.86,9.643,10.122
		C605.592,52.953,606.783,57.819,606.783,63.288z M600.389,63.288c0-4.332-0.889-8.186-2.663-11.56
		c-1.776-3.373-4.209-6.037-7.299-7.991c-3.09-1.953-6.624-2.93-10.602-2.93c-3.907,0-7.405,0.978-10.495,2.93
		c-3.09,1.955-5.54,4.618-7.352,7.991c-1.812,3.375-2.717,7.229-2.717,11.56c0,4.334,0.905,8.169,2.717,11.507
		c1.812,3.34,4.262,5.985,7.352,7.938c3.09,1.954,6.588,2.93,10.495,2.93c3.978,0,7.512-0.976,10.602-2.93
		c3.09-1.953,5.522-4.599,7.299-7.938C599.5,71.457,600.389,67.622,600.389,63.288z"/>
	<path fill="#FF004E" d="M623.082,90.564c-0.995,0-1.776-0.319-2.344-0.959c-0.569-0.64-0.853-1.385-0.853-2.237V39.635
		c0-0.853,0.302-1.598,0.906-2.238c0.603-0.639,1.366-0.958,2.29-0.958c0.923,0,1.687,0.319,2.291,0.958
		c0.603,0.64,0.906,1.385,0.906,2.238v15.982l-1.599,0.32c0.213-2.486,0.834-4.955,1.864-7.405c1.029-2.45,2.433-4.705,4.209-6.766
		c1.774-2.06,3.889-3.729,6.34-5.008c2.45-1.278,5.202-1.918,8.257-1.918c1.279,0,2.521,0.267,3.729,0.799
		c1.207,0.533,1.812,1.403,1.812,2.61c0,1.065-0.285,1.883-0.853,2.451c-0.569,0.569-1.244,0.853-2.024,0.853
		c-0.64,0-1.332-0.177-2.078-0.533c-0.745-0.355-1.723-0.533-2.93-0.533c-1.989,0-3.979,0.586-5.967,1.758
		c-1.989,1.172-3.801,2.753-5.434,4.741c-1.635,1.99-2.931,4.209-3.89,6.659c-0.958,2.451-1.438,4.92-1.438,7.405v26.317
		c0,0.853-0.32,1.598-0.959,2.237C624.68,90.245,623.934,90.564,623.082,90.564z"/>
	<path fill="#FF004E" d="M663.889,28.021c-1.491,0-2.61-0.336-3.356-1.012c-0.745-0.674-1.118-1.651-1.118-2.93v-1.065
		c0-1.278,0.407-2.254,1.226-2.93c0.815-0.674,1.934-1.012,3.355-1.012c1.349,0,2.397,0.338,3.144,1.012
		c0.746,0.676,1.119,1.652,1.119,2.93v1.065c0,1.279-0.373,2.256-1.119,2.93C666.393,27.685,665.309,28.021,663.889,28.021z
		 M667.085,87.368c0,0.853-0.319,1.598-0.959,2.237c-0.639,0.64-1.385,0.959-2.237,0.959c-0.924,0-1.688-0.319-2.291-0.959
		s-0.905-1.385-0.905-2.237V38.356c0-0.852,0.302-1.598,0.905-2.237s1.367-0.959,2.291-0.959c0.923,0,1.687,0.32,2.291,0.959
		c0.603,0.639,0.905,1.385,0.905,2.237V87.368z"/>
	<path fill="#FF004E" d="M680.616,81.935c-0.569-0.853-0.836-1.687-0.799-2.504c0.035-0.816,0.479-1.474,1.332-1.972
		c0.567-0.496,1.225-0.709,1.971-0.64c0.746,0.072,1.438,0.427,2.078,1.066c1.918,2.486,4.243,4.493,6.979,6.02
		c2.733,1.528,5.983,2.291,9.749,2.291c1.988,0,3.959-0.337,5.914-1.013c1.952-0.674,3.569-1.704,4.848-3.09
		c1.278-1.385,1.918-3.143,1.918-5.274c0-2.2-0.64-3.977-1.918-5.327c-1.278-1.349-2.931-2.414-4.955-3.196
		c-2.024-0.78-4.173-1.455-6.445-2.024c-2.416-0.639-4.76-1.367-7.032-2.184c-2.274-0.816-4.28-1.846-6.021-3.09
		c-1.741-1.242-3.143-2.752-4.208-4.528c-1.065-1.775-1.599-3.942-1.599-6.5c0-2.983,0.815-5.61,2.45-7.884
		c1.634-2.272,3.853-4.049,6.659-5.328c2.806-1.278,5.983-1.918,9.536-1.918c1.775,0,3.693,0.231,5.754,0.693
		c2.06,0.463,4.084,1.225,6.073,2.291c1.987,1.065,3.764,2.522,5.327,4.369c0.64,0.639,0.959,1.368,0.959,2.184
		c0,0.817-0.356,1.545-1.065,2.184c-0.569,0.426-1.226,0.64-1.971,0.64c-0.746,0-1.369-0.283-1.865-0.853
		c-1.704-1.918-3.729-3.373-6.073-4.369c-2.344-0.994-4.866-1.491-7.564-1.491c-2.062,0-3.995,0.338-5.807,1.012
		c-1.812,0.676-3.321,1.688-4.528,3.037c-1.209,1.351-1.812,3.127-1.812,5.328c0.142,2.061,0.869,3.729,2.185,5.008
		c1.313,1.278,3.053,2.344,5.221,3.196c2.166,0.853,4.598,1.635,7.298,2.344c2.272,0.569,4.457,1.244,6.553,2.024
		c2.095,0.782,3.942,1.758,5.541,2.93c1.598,1.172,2.877,2.647,3.836,4.422c0.959,1.776,1.438,4.014,1.438,6.712
		c0,3.127-0.871,5.825-2.611,8.098c-1.741,2.274-4.066,4.014-6.979,5.221c-2.913,1.207-6.145,1.812-9.695,1.812
		c-3.836,0-7.549-0.746-11.135-2.237C686.564,87.9,683.386,85.415,680.616,81.935z"/>
	<path fill="#FF004E" d="M730.161,36.332h24.825c0.853,0,1.562,0.303,2.131,0.906c0.568,0.604,0.853,1.332,0.853,2.184
		c0,0.783-0.284,1.457-0.853,2.024c-0.569,0.569-1.278,0.853-2.131,0.853h-24.825c-0.853,0-1.582-0.301-2.185-0.906
		c-0.604-0.603-0.905-1.295-0.905-2.078c0-0.852,0.301-1.562,0.905-2.131C728.579,36.616,729.308,36.332,730.161,36.332z
		 M741.135,21.309c0.922,0,1.687,0.319,2.29,0.959c0.603,0.639,0.906,1.385,0.906,2.237v53.487c0,1.989,0.267,3.48,0.799,4.475
		c0.533,0.995,1.226,1.651,2.078,1.971c0.852,0.32,1.704,0.479,2.557,0.479c0.567,0,1.082-0.088,1.545-0.266
		c0.461-0.177,0.976-0.267,1.545-0.267c0.64,0,1.188,0.25,1.651,0.746c0.461,0.497,0.692,1.137,0.692,1.918
		c0,0.995-0.569,1.829-1.704,2.504c-1.138,0.676-2.487,1.012-4.049,1.012c-0.64,0-1.599-0.054-2.877-0.16s-2.594-0.496-3.942-1.172
		c-1.35-0.674-2.469-1.864-3.356-3.569c-0.889-1.704-1.332-4.155-1.332-7.352V24.505c0-0.853,0.302-1.598,0.906-2.237
		C739.447,21.628,740.21,21.309,741.135,21.309z"/>
</g>
<g>
</g>
<g>
</g>
<g>
</g>
<g>
</g>
<g>
</g>
<g>
</g>
<g>
</g>
<g>
</g>
<g>
</g>
<g>
</g>
<g>
</g>
<g>
</g>
<g>
</g>
<g>
</g>
<g>
</g>
</svg>
